<svg id="visual" viewBox="0 0 900 600" width="900" height="600" xmlns="http://www.w3.org/2000/svg" xmlns:xlink="http://www.w3.org/1999/xlink" version="1.1"><rect x="0" y="0" width="900" height="600" fill="#ff00a7"></rect><path d="M0 319L30 336.8C60 354.7 120 390.3 180 415.5C240 440.7 300 455.3 360 450.3C420 445.3 480 420.7 540 402C600 383.3 660 370.7 720 382.2C780 393.7 840 429.3 870 447.2L900 465L900 601L870 601C840 601 780 601 720 601C660 601 600 601 540 601C480 601 420 601 360 601C300 601 240 601 180 601C120 601 60 601 30 601L0 601Z" fill="#000533" stroke-linecap="round" stroke-linejoin="miter"></path></svg>