<svg id="visual" viewBox="0 0 900 600" width="900" height="600" xmlns="http://www.w3.org/2000/svg" xmlns:xlink="http://www.w3.org/1999/xlink" version="1.1"><rect x="0" y="0" width="900" height="600" fill="#000533"></rect><path d="M0 443L30 444.7C60 446.3 120 449.7 180 442.2C240 434.7 300 416.3 360 390C420 363.7 480 329.3 540 308C600 286.7 660 278.3 720 276.2C780 274 840 278 870 280L900 282L900 601L870 601C840 601 780 601 720 601C660 601 600 601 540 601C480 601 420 601 360 601C300 601 240 601 180 601C120 601 60 601 30 601L0 601Z" fill="#ff00a7" stroke-linecap="round" stroke-linejoin="miter"></path></svg>